<svg width="28" height="28" viewBox="0 0 28 28" fill="none" xmlns="http://www.w3.org/2000/svg">
<rect width="28" height="28" rx="5" fill="white"/>
<path d="M20.556 13.2196L11.6558 4.31951C11.4499 4.1135 11.1751 4 10.8821 4C10.5891 4 10.3143 4.1135 10.1085 4.31951L9.45305 4.97479C9.02655 5.40178 9.02655 6.09576 9.45305 6.52209L16.9268 13.9959L9.44475 21.4779C9.2389 21.6839 9.12524 21.9586 9.12524 22.2514C9.12524 22.5446 9.2389 22.8192 9.44475 23.0254L10.1002 23.6805C10.3062 23.8865 10.5808 24 10.8738 24C11.1669 24 11.4416 23.8865 11.6475 23.6805L20.556 14.7723C20.7624 14.5656 20.8757 14.2897 20.8751 13.9963C20.8757 13.7019 20.7624 13.4261 20.556 13.2196Z" fill="#D385FF"/>
</svg>
